<?xml version="1.0" encoding="UTF-8"?>
<svg version="1.1" xmlns="http://www.w3.org/2000/svg" width="48" height="48">
<path d="M0 0 C0.33 0.66 0.66 1.32 1 2 C1.598125 2.12375 2.19625 2.2475 2.8125 2.375 C5.85397717 3.24399348 7.00376889 4.55300703 9 7 C11.30513171 11.44561115 12.89898672 15.00562933 12 20 C10.56421671 22.49285272 8.9987314 24.81425313 7.3125 27.14453125 C5.90375122 28.75727329 5.90375122 28.75727329 6 30 C4.35 30 2.7 30 1 30 C1 32.64 1 35.28 1 38 C-5.75 39.125 -5.75 39.125 -8 38 C-8 35.36 -8 32.72 -8 30 C-10.31 29.67 -12.62 29.34 -15 29 C-15.268125 28.2575 -15.53625 27.515 -15.8125 26.75 C-16.83269804 23.98510502 -16.83269804 23.98510502 -18.6875 22.125 C-20 20 -20 20 -19.875 16.625 C-19.00623396 13.02582642 -17.73489304 10.25292444 -16 7 C-15.9175 6.278125 -15.835 5.55625 -15.75 4.8125 C-15 3 -15 3 -11.9375 1.25 C-7.88076808 -0.30704441 -4.30570187 -0.22661589 0 0 Z M-13 28 C-13 28.33 -13 28.66 -13 29 C-11.35 29 -9.7 29 -8 29 C-8 28.67 -8 28.34 -8 28 C-9.65 28 -11.3 28 -13 28 Z " fill="#84B340" transform="translate(28,4)"/>
<path d="M0 0 C0.91007812 0.10183594 1.82015625 0.20367187 2.7578125 0.30859375 C3.45648438 0.39238281 4.15515625 0.47617188 4.875 0.5625 C4.875 1.2225 4.875 1.8825 4.875 2.5625 C3.781875 2.8925 2.68875 3.2225 1.5625 3.5625 C-0.78581163 4.55875342 -1.88545159 5.16865173 -3.22265625 7.3671875 C-3.99231371 9.41702899 -4.60000669 11.4375271 -5.125 13.5625 C-5.3725 14.47 -5.62 15.3775 -5.875 16.3125 C-6.13845043 18.68355385 -5.87520153 20.31189541 -5.125 22.5625 C-7.71560578 22.20517506 -8.97067494 21.7008604 -10.9375 19.9375 C-12.67488199 16.46273603 -12.02449089 14.28896226 -11.125 10.5625 C-10.17288888 8.53926387 -9.17726728 6.53550116 -8.125 4.5625 C-7.939375 3.799375 -7.75375 3.03625 -7.5625 2.25 C-7.418125 1.693125 -7.27375 1.13625 -7.125 0.5625 C-4.50184968 -0.74907516 -2.89466564 -0.33399988 0 0 Z " fill="#709B3C" transform="translate(20.125,6.4375)"/>
<path d="M0 0 C0.99 0 1.98 0 3 0 C3.33 1.65 3.66 3.3 4 5 C4.66 5 5.32 5 6 5 C5.67 5.99 5.34 6.98 5 8 C4.77674186 10.05893621 4.59294241 12.12233653 4.4375 14.1875 C4.35371094 15.27417969 4.26992188 16.36085938 4.18359375 17.48046875 C4.12300781 18.31191406 4.06242187 19.14335938 4 20 C2.35 20.33 0.7 20.66 -1 21 C-1.06058594 19.87980469 -1.12117188 18.75960937 -1.18359375 17.60546875 C-1.26801424 16.13280016 -1.35266149 14.66014456 -1.4375 13.1875 C-1.47681641 12.44951172 -1.51613281 11.71152344 -1.55664062 10.95117188 C-1.74381035 7.76928658 -1.98720793 5.03837622 -3 2 C-2.01 2 -1.02 2 0 2 C0 1.34 0 0.68 0 0 Z " fill="#9C7F60" transform="translate(23,22)"/>
<path d="M0 0 C0.33 0 0.66 0 1 0 C1 2.31 1 4.62 1 7 C0.67 7 0.34 7 0 7 C0 4.69 0 2.38 0 0 Z " fill="#4E794E" transform="translate(41,18)"/>
<path d="M0 0 C0.33 0 0.66 0 1 0 C1 1.65 1 3.3 1 5 C0.67 5 0.34 5 0 5 C0 3.35 0 1.7 0 0 Z " fill="#4CB200" transform="translate(6,19)"/>
<path d="M0 0 C4 1 4 1 4 1 Z " fill="#7F7F00" transform="translate(22,44)"/>
<path d="M0 0 C1 4 1 4 1 4 Z " fill="#9F9F1F" transform="translate(9,12)"/>
<path d="M0 0 C1 4 1 4 1 4 Z " fill="#9F9F00" transform="translate(39,13)"/>
<path d="" fill="#FFFF00" transform="translate(0,0)"/>
<path d="" fill="#BFFF00" transform="translate(0,0)"/>
<path d="" fill="#3FBF00" transform="translate(0,0)"/>
<path d="" fill="#3FBF00" transform="translate(0,0)"/>
<path d="" fill="#3FBF3F" transform="translate(0,0)"/>
<path d="M0 0 C2 1 2 1 2 1 Z " fill="#FFFF00" transform="translate(33,7)"/>
<path d="" fill="#FFFF00" transform="translate(0,0)"/>
<path d="" fill="#7F7F00" transform="translate(0,0)"/>
<path d="" fill="#00FF00" transform="translate(0,0)"/>
<path d="" fill="#7F7F00" transform="translate(0,0)"/>
<path d="" fill="#000000" transform="translate(0,0)"/>
<path d="" fill="#7F7F00" transform="translate(0,0)"/>
<path d="" fill="#7FFF00" transform="translate(0,0)"/>
<path d="" fill="#FFFF00" transform="translate(0,0)"/>
<path d="" fill="#00FF00" transform="translate(0,0)"/>
<path d="" fill="#7F7F00" transform="translate(0,0)"/>
<path d="" fill="#7F7F00" transform="translate(0,0)"/>
<path d="" fill="#FFFF00" transform="translate(0,0)"/>
<path d="" fill="#7F7F00" transform="translate(0,0)"/>
<path d="" fill="#FFFF00" transform="translate(0,0)"/>
<path d="" fill="#00FF00" transform="translate(0,0)"/>
<path d="" fill="#FFFF00" transform="translate(0,0)"/>
</svg>
